<?xml version="1.0" encoding="UTF-8"?>
<svg id="Layer_1" data-name="Layer 1" xmlns="http://www.w3.org/2000/svg" viewBox="0 0 850 850">
  <defs>
    <style>
      .cls-1 {
        fill: #fb8b1e;
      }
    </style>
  </defs>
  <path class="cls-1" d="m562.35,303.18l37.57-10.06,19.51-18.69,4.38-4.48-50.57-50.57-3.62,3.53-21.78,21.8-13.21-8.44c-19.26-12.24-41.25-21.21-65.31-26.62l-15.26-3.45v-35.69h-71.29v35.52l-15.05,3.57c-23.95,5.65-45.94,14.67-65.37,26.77l-13.05,8.14-25.69-25.16-50.49,50.51,25.58,25.86-8.52,13.19c-12.33,19.11-21.57,41.46-26.7,64.57l-3.38,15.33h-36.45v71.55h6.72l87.66-87.66c21.95-67.55,85.44-116.39,160.32-116.39,65.65,0,122.52,37.53,150.34,92.29l19.54-19.54-25.88-25.88Zm85.61,85.63h-1.44l-61.57,61.57c-12.28,81-82.18,143.05-166.6,143.05-68.82,0-128.02-41.25-154.21-100.38-.87-1.97-1.71-3.95-2.49-5.96l-39.54,39.54c1.71,3.26,3.55,6.49,5.45,9.66.87,1.44,1.8,2.94,2.75,4.44l8.35,13.28-25.58,25.39,50.45,50.78,25.62-25.62,13.19,8.25c19.81,12.35,41.84,21.5,65.46,27.21l14.97,3.62v35.88h71.29v-36.05l15.18-3.49c23.76-5.48,45.75-14.59,65.37-27.08l13.32-8.46,25.43,25.71,50.26-50.62-25.39-25.16,8.25-13.28c12.75-20.44,21.92-42.52,27.34-65.61l3.53-15.12h35.56v-46.58l-24.95-24.97Z"/>
  <path d="m606.92,309.1l-7.23,1.95,15.86,15.86-39.2,39.22-58.04,58.08-73.34-73.36-98.69,98.71-69.94-69.96-25.37,25.37-55.44,55.39-26.41,26.41c4.23,15.81,10.17,31.1,17.7,45.67l26.01-26.01,41.71-41.71,21.78-21.78,69.96,69.98,98.71-98.74,73.34,73.34,115.12-115.12,13.81-13.81,15.86,15.88,23.24-86.66-79.43,21.29Z"/>
</svg>