<svg width="134" height="74" viewBox="0 0 134 74" fill="none" xmlns="http://www.w3.org/2000/svg">
<g opacity="0.5" clip-path="url(#clip0_1415_31359)">
<path d="M2.9778 5.9556C4.62239 5.9556 5.9556 4.62239 5.9556 2.9778C5.9556 1.33321 4.62239 0 2.9778 0C1.33321 0 0 1.33321 0 2.9778C0 4.62239 1.33321 5.9556 2.9778 5.9556Z" fill="#655580"/>
<path d="M2.9778 31.9112C4.62239 31.9112 5.9556 30.578 5.9556 28.9334C5.9556 27.2888 4.62239 25.9556 2.9778 25.9556C1.33321 25.9556 0 27.2888 0 28.9334C0 30.578 1.33321 31.9112 2.9778 31.9112Z" fill="#655580"/>
<path d="M2.9778 57.8667C4.62239 57.8667 5.9556 56.5335 5.9556 54.8889C5.9556 53.2443 4.62239 51.9111 2.9778 51.9111C1.33321 51.9111 0 53.2443 0 54.8889C0 56.5335 1.33321 57.8667 2.9778 57.8667Z" fill="#655580"/>
<path d="M28.9334 5.9556C30.578 5.9556 31.9112 4.62239 31.9112 2.9778C31.9112 1.33321 30.578 0 28.9334 0C27.2888 0 25.9556 1.33321 25.9556 2.9778C25.9556 4.62239 27.2888 5.9556 28.9334 5.9556Z" fill="#655580"/>
<path d="M28.9334 31.9112C30.578 31.9112 31.9112 30.578 31.9112 28.9334C31.9112 27.2888 30.578 25.9556 28.9334 25.9556C27.2888 25.9556 25.9556 27.2888 25.9556 28.9334C25.9556 30.578 27.2888 31.9112 28.9334 31.9112Z" fill="#655580"/>
<path d="M28.9334 57.8667C30.578 57.8667 31.9112 56.5335 31.9112 54.8889C31.9112 53.2443 30.578 51.9111 28.9334 51.9111C27.2888 51.9111 25.9556 53.2443 25.9556 54.8889C25.9556 56.5335 27.2888 57.8667 28.9334 57.8667Z" fill="#655580"/>
<path d="M54.8889 5.9556C56.5335 5.9556 57.8667 4.62239 57.8667 2.9778C57.8667 1.33321 56.5335 0 54.8889 0C53.2443 0 51.9111 1.33321 51.9111 2.9778C51.9111 4.62239 53.2443 5.9556 54.8889 5.9556Z" fill="#655580"/>
<path d="M54.8889 31.9112C56.5335 31.9112 57.8667 30.578 57.8667 28.9334C57.8667 27.2888 56.5335 25.9556 54.8889 25.9556C53.2443 25.9556 51.9111 27.2888 51.9111 28.9334C51.9111 30.578 53.2443 31.9112 54.8889 31.9112Z" fill="#655580"/>
<path d="M54.8889 57.8667C56.5335 57.8667 57.8667 56.5335 57.8667 54.8889C57.8667 53.2443 56.5335 51.9111 54.8889 51.9111C53.2443 51.9111 51.9111 53.2443 51.9111 54.8889C51.9111 56.5335 53.2443 57.8667 54.8889 57.8667Z" fill="#655580"/>
<path d="M80.8445 5.9556C82.4891 5.9556 83.8223 4.62239 83.8223 2.9778C83.8223 1.33321 82.4891 0 80.8445 0C79.1999 0 77.8667 1.33321 77.8667 2.9778C77.8667 4.62239 79.1999 5.9556 80.8445 5.9556Z" fill="#655580"/>
<path d="M80.8445 31.9112C82.4891 31.9112 83.8223 30.578 83.8223 28.9334C83.8223 27.2888 82.4891 25.9556 80.8445 25.9556C79.1999 25.9556 77.8667 27.2888 77.8667 28.9334C77.8667 30.578 79.1999 31.9112 80.8445 31.9112Z" fill="#655580"/>
<path d="M80.8445 57.8667C82.4891 57.8667 83.8223 56.5335 83.8223 54.8889C83.8223 53.2443 82.4891 51.9111 80.8445 51.9111C79.1999 51.9111 77.8667 53.2443 77.8667 54.8889C77.8667 56.5335 79.1999 57.8667 80.8445 57.8667Z" fill="#655580"/>
<path d="M106.8 5.9556C108.445 5.9556 109.778 4.62239 109.778 2.9778C109.778 1.33321 108.445 0 106.8 0C105.155 0 103.822 1.33321 103.822 2.9778C103.822 4.62239 105.155 5.9556 106.8 5.9556Z" fill="#655580"/>
<path d="M106.8 31.9112C108.445 31.9112 109.778 30.578 109.778 28.9334C109.778 27.2888 108.445 25.9556 106.8 25.9556C105.155 25.9556 103.822 27.2888 103.822 28.9334C103.822 30.578 105.155 31.9112 106.8 31.9112Z" fill="#655580"/>
<path d="M106.8 57.8667C108.445 57.8667 109.778 56.5335 109.778 54.8889C109.778 53.2443 108.445 51.9111 106.8 51.9111C105.155 51.9111 103.822 53.2443 103.822 54.8889C103.822 56.5335 105.155 57.8667 106.8 57.8667Z" fill="#655580"/>
<path d="M132.756 5.9556C134.401 5.9556 135.734 4.62239 135.734 2.9778C135.734 1.33321 134.401 0 132.756 0C131.111 0 129.778 1.33321 129.778 2.9778C129.778 4.62239 131.111 5.9556 132.756 5.9556Z" fill="#655580"/>
<path d="M132.756 31.9112C134.401 31.9112 135.734 30.578 135.734 28.9334C135.734 27.2888 134.401 25.9556 132.756 25.9556C131.111 25.9556 129.778 27.2888 129.778 28.9334C129.778 30.578 131.111 31.9112 132.756 31.9112Z" fill="#655580"/>
<path d="M132.756 57.8667C134.401 57.8667 135.734 56.5335 135.734 54.8889C135.734 53.2443 134.401 51.9111 132.756 51.9111C131.111 51.9111 129.778 53.2443 129.778 54.8889C129.778 56.5335 131.111 57.8667 132.756 57.8667Z" fill="#655580"/>
</g>
<defs>
<clipPath id="clip0_1415_31359">
<rect width="162" height="162" fill="white"/>
</clipPath>
</defs>
</svg>
