<svg width="105" height="105" viewBox="0 0 105 105" fill="none" xmlns="http://www.w3.org/2000/svg">
<path d="M55.7802 0C57.7363 0.26845 59.7006 0.490333 61.6485 0.80809C82.1493 4.16372 99.4639 20.7008 103.749 41.051C106.655 54.8652 104.505 67.8522 97.2256 79.9681C96.1516 81.7541 94.4339 82.5512 92.664 82.1321C89.8669 81.4665 88.5875 78.4505 90.1134 75.9194C92.223 72.4213 93.8996 68.7452 95.0503 64.8253C102.236 40.3607 86.8176 14.521 61.8704 9.21497C38.4766 4.24042 15.417 18.5231 9.56508 41.6071C3.36252 66.0771 18.9593 90.9636 43.6956 95.8861C55.3994 98.2145 66.3717 96.1244 76.47 89.7199C77.6837 88.9502 78.922 88.4818 80.3356 88.8872C81.9109 89.3392 82.9383 90.402 83.2397 92.0182C83.5712 93.7933 82.9712 95.2643 81.4479 96.2778C77.648 98.8062 73.5824 100.803 69.2538 102.249C40.7423 111.774 10.2719 95.7546 2.02558 66.8195C1.09684 63.5597 0.784516 60.1247 0.184533 56.7718C0.127 56.4376 0.0639884 56.1034 0.000976562 55.7719C0.000976562 53.586 0.000976562 51.3973 0.000976562 49.2113C0.0612488 48.9155 0.13248 48.6196 0.176314 48.3183C0.524249 45.9571 0.7489 43.5711 1.23108 41.2373C5.46931 20.772 22.7565 4.19385 43.3504 0.80809C45.2983 0.487594 47.2626 0.265711 49.2187 0C51.405 0 53.5939 0 55.7802 0Z" fill="#FB8B1E"/>
<path d="M56.602 43.0064C56.602 47.1044 56.602 51.1996 56.602 55.2976C56.602 60.9679 56.613 66.641 56.5938 72.3113C56.5883 74.0371 55.7883 75.33 54.2213 76.0724C52.7282 76.7818 51.2816 76.5846 49.9803 75.5903C48.8105 74.6945 48.3886 73.4481 48.3913 71.9908C48.4077 62.732 48.3995 53.4732 48.3995 44.2172V42.7489C47.9995 43.1352 47.7447 43.3735 47.5009 43.62C45.0407 46.1374 42.5969 48.6685 40.1176 51.1668C38.934 52.3611 37.4738 52.7336 35.8793 52.1967C34.2849 51.6598 33.3506 50.4874 33.1123 48.8219C32.926 47.5235 33.3506 46.3812 34.2575 45.4526C39.3559 40.2123 44.4462 34.9666 49.5776 29.7592C51.2761 28.0362 53.7363 28.0417 55.4404 29.7729C60.5718 34.9803 65.6757 40.2151 70.755 45.4745C72.3961 47.1756 72.3057 49.6848 70.6674 51.2708C69.0318 52.8514 66.5552 52.8377 64.8703 51.1531C62.4046 48.6904 59.991 46.1758 57.5664 43.6721C57.3116 43.4091 57.139 43.0722 56.928 42.7681C56.8184 42.8503 56.7116 42.9297 56.602 43.0119V43.0064Z" fill="#FB8B1E"/>
</svg>
